<svg id="Calque_1" data-name="Calque 1" xmlns="http://www.w3.org/2000/svg" viewBox="0 0 103.92 53.75"><defs><style>.cls-1{fill:#3c3c3b;}.cls-2{fill:#9eaed8;}</style></defs><title>logo_david_chambaud</title><path class="cls-1" d="M2392.06,234.34a6.38,6.38,0,0,1-2.37.71l-0.11,0-0.2-.1a1.5,1.5,0,0,1-.52-0.1l-0.16-.07a0.49,0.49,0,0,1-.29-0.64,4.22,4.22,0,0,1,1.44-1.16,4.48,4.48,0,0,1,1.53-.41,4.37,4.37,0,0,1,1.77.09l0,0a0.62,0.62,0,0,1,.31.26l0.18-.43,0,0a2.3,2.3,0,0,1-.06.31,2.87,2.87,0,0,1-.34.48" transform="translate(-2343.58 -181.32)"/><path class="cls-2" d="M2343.58,217.76H2345a2.41,2.41,0,0,1,2.61,2.74c0,1.76-.91,2.79-2.58,2.79h-1.42v-5.53Zm1.33,5c1.3,0,1.94-.82,1.94-2.22s-0.64-2.16-1.94-2.16h-0.62v4.38h0.62Z" transform="translate(-2343.58 -181.32)"/><path class="cls-2" d="M2354.38,221.61h-2l-0.53,1.68h-0.72l1.87-5.53h0.79l1.87,5.53h-0.74Zm-0.18-.56-0.26-.84c-0.19-.61-0.37-1.22-0.55-1.86h0c-0.18.64-.35,1.25-0.55,1.86l-0.27.84h1.66Z" transform="translate(-2343.58 -181.32)"/><path class="cls-2" d="M2358.72,217.76h0.74l0.89,3c0.19,0.66.33,1.18,0.53,1.83h0c0.2-.65.35-1.17,0.53-1.83l0.88-3H2363l-1.75,5.53h-0.82Z" transform="translate(-2343.58 -181.32)"/><path class="cls-2" d="M2367,217.76h0.71v5.53H2367v-5.53Z" transform="translate(-2343.58 -181.32)"/><path class="cls-2" d="M2372.33,217.76h1.38a2.41,2.41,0,0,1,2.61,2.74c0,1.76-.91,2.79-2.58,2.79h-1.42v-5.53Zm1.33,5c1.3,0,1.94-.82,1.94-2.22s-0.64-2.16-1.94-2.16H2373v4.38h0.62Z" transform="translate(-2343.58 -181.32)"/><path class="cls-2" d="M2387.73,217.66a2,2,0,0,1,1.51.68l-0.4.45a1.48,1.48,0,0,0-1.1-.51c-1.05,0-1.75.86-1.75,2.23s0.67,2.27,1.72,2.27a1.61,1.61,0,0,0,1.26-.62l0.4,0.43a2.12,2.12,0,0,1-1.68.8c-1.39,0-2.43-1.06-2.43-2.86S2386.32,217.66,2387.73,217.66Z" transform="translate(-2343.58 -181.32)"/><path class="cls-2" d="M2393.55,217.76h0.71v2.32h2.57v-2.32h0.7v5.53h-0.7v-2.6h-2.57v2.6h-0.71v-5.53Z" transform="translate(-2343.58 -181.32)"/><path class="cls-2" d="M2404.73,221.61h-2l-0.53,1.68h-0.72l1.87-5.53h0.79l1.87,5.53h-0.74Zm-0.18-.56-0.26-.84c-0.19-.61-0.37-1.22-0.55-1.86h0c-0.18.64-.35,1.25-0.55,1.86l-0.27.84h1.66Z" transform="translate(-2343.58 -181.32)"/><path class="cls-2" d="M2409.93,217.76h0.83l1.07,3,0.4,1.13h0l0.39-1.13,1.06-3h0.83v5.53h-0.67v-3c0-.49.06-1.15,0.09-1.63h0l-0.44,1.23-1.06,2.89H2412l-1.06-2.89-0.44-1.23h0c0,0.49.08,1.15,0.08,1.63v3h-0.65v-5.53Z" transform="translate(-2343.58 -181.32)"/><path class="cls-2" d="M2419.21,217.76h1.64c1.12,0,1.9.38,1.9,1.35a1.2,1.2,0,0,1-1,1.2v0a1.3,1.3,0,0,1,1.28,1.32c0,1.09-.86,1.62-2.09,1.62h-1.77v-5.53Zm1.53,2.36c0.93,0,1.33-.34,1.33-1s-0.45-.85-1.3-0.85h-0.85v1.8h0.82Zm0.14,2.61c0.94,0,1.5-.35,1.5-1.1s-0.53-1-1.5-1h-1v2.09h1Z" transform="translate(-2343.58 -181.32)"/><path class="cls-2" d="M2429.85,221.61h-2l-0.53,1.68h-0.72l1.87-5.53h0.79l1.87,5.53h-0.74Zm-0.18-.56-0.26-.84c-0.19-.61-0.37-1.22-0.55-1.86h0c-0.18.64-.35,1.25-0.55,1.86L2428,221h1.66Z" transform="translate(-2343.58 -181.32)"/><path class="cls-2" d="M2434.9,217.76h0.71V221c0,1.33.56,1.75,1.28,1.75s1.31-.42,1.31-1.75v-3.26h0.67V221c0,1.78-.86,2.38-2,2.38s-2-.61-2-2.38v-3.24Z" transform="translate(-2343.58 -181.32)"/><path class="cls-2" d="M2443.51,217.76h1.38a2.41,2.41,0,0,1,2.61,2.74c0,1.76-.91,2.79-2.58,2.79h-1.42v-5.53Zm1.33,5c1.3,0,1.94-.82,1.94-2.22s-0.64-2.16-1.94-2.16h-0.62v4.38h0.62Z" transform="translate(-2343.58 -181.32)"/><path class="cls-2" d="M2384.47,198.49c-1.23,1.13-9.85,8.8-12.22,9.81a10.24,10.24,0,0,1-4,1.19c-1.61.08-2.34,0.1-3-.79a9.22,9.22,0,0,1-.59-2.56c-0.11-2.23.93-3.23,4.48-6.21q5-3.56,9.5-3.77c2-.09,3.41-0.23,4.41,1.21a1.2,1.2,0,0,1,.1.74A21.86,21.86,0,0,0,2387,193c2.38-7.67,5-11.57,7.4-11.69h0.28a1.93,1.93,0,0,1,1.85,1.82,1.06,1.06,0,0,1-.14.59l-0.38,1c-0.36.91-.86,0.93-1.66,2.23a38.3,38.3,0,0,0-4.18,8,25.25,25.25,0,0,0-1.54,9.93c0.13,2.64.95,5,1.9,5.57a4.46,4.46,0,0,0,1.07.75c0.12,0.16.18,0.08,0.19,0.26-0.1.88-.2,0.82-0.75,0.85l-0.42,0c-0.64,0-1.57-.76-2.75-1.88-1.51-1.68-2.1-4.29-2.26-7.81a21.81,21.81,0,0,1,.31-5.63A12.49,12.49,0,0,1,2384.47,198.49Zm-16,9.09s-0.26.23,0,.32a2.87,2.87,0,0,0,1.09.05c2-.09,4.55-1.65,9.88-6.38-3.34,1-4.57,1.12-6.37,2.15a13.29,13.29,0,0,0-3.78,2.71A4.27,4.27,0,0,1,2368.51,207.58Z" transform="translate(-2343.58 -181.32)"/><path class="cls-2" d="M2408.11,189.54c-0.61.51-2.14,1-2.16,1.34h0.32a28.46,28.46,0,0,0-4.76,5,22.06,22.06,0,0,0-2.29,3.66c-1.28,2.61-1.65,3.49-1.68,4.11l-0.29.84a1.74,1.74,0,0,0,1.44,1.51,3.26,3.26,0,0,0,1.05.3c5.4,0.26,8.64-2.33,16.22-3.44,2.06-.31,1.92-0.58,1.92-0.58a9.65,9.65,0,0,1,1.91-.34,4.82,4.82,0,0,1,1,.22c0.33,0.09-.23.94-0.23,0.94,0,1-4.47,1.53-6.41,1.91s-8.14,2.33-13.1,2.87l-1.17,0h-0.28a7.51,7.51,0,0,1-4.49-2.28,4.68,4.68,0,0,1-1-2.51l0-.66q0.21-4.34,3.74-9.94c2.86-3.73,5.47-6,7.79-5.92,1.62,0.24,3.61.87,3.35,1.71A1.91,1.91,0,0,1,2408.11,189.54Z" transform="translate(-2343.58 -181.32)"/><path class="cls-1" d="M2429.82,201.59c-2.13.64-2.44,0.9-2.66,0.8l-0.12,0-0.23-.11a1.69,1.69,0,0,1-.58-0.11l-0.18-.08c-0.33-.2-0.44-0.19-0.33-0.47a5.16,5.16,0,0,1,1.62-1.56,3.75,3.75,0,0,1,1.72-.22,3.34,3.34,0,0,1,1.7.15h0S2432.48,200.79,2429.82,201.59Z" transform="translate(-2343.58 -181.32)"/></svg>