<svg id="Calque_1" data-name="Calque 1" xmlns="http://www.w3.org/2000/svg" viewBox="0 0 188.4 148.71"><defs><style>.cls-1,.cls-2,.cls-3,.cls-4{fill:none;stroke-linecap:round;}.cls-1{stroke:#050505;}.cls-1,.cls-2{stroke-miterlimit:10;}.cls-1,.cls-2,.cls-4{stroke-width:5px;}.cls-2,.cls-3,.cls-4{stroke:#000;}.cls-3,.cls-4{stroke-linejoin:round;}.cls-3{stroke-width:4px;}</style></defs><title>platchaud</title><line class="cls-1" x1="66.57" y1="28.74" x2="110.9" y2="74.47"/><line class="cls-2" x1="118.9" y1="28.74" x2="75.9" y2="70.74"/><path class="cls-2" d="M240.22,252.3s-0.33-10,0-16-2.33-8.89-11.67-5.94-33,7.28-29.67,30.61,24.67,19.33,31.67,17.33S248.22,270,240.22,252.3Z" transform="translate(-175.98 -155.89)"/><path class="cls-3" d="M306,230.56s3.41,15.52,15.52,5.59c-4.35,5.28-6.21,6.21-7.76,6.52,0.31,5.59,1.55,20.8-14,28.87-0.62-19.87-1.55-18.62,8.07-30.73C306,230.56,306.65,235.53,306,230.56Z" transform="translate(-175.98 -155.89)"/><path class="cls-3" d="M339.54,283.37s-8.7-13.3-16.49.29c2.19-6.48,3.6-8,4.94-8.85-2.27-5.11-8.84-18.89,2.81-31.95,7.64,18.35,8.06,16.86,3.37,31.59C339.54,283.37,337.2,278.95,339.54,283.37Z" transform="translate(-175.98 -155.89)"/><circle class="cls-2" cx="48.23" cy="103.41" r="8.5"/><circle class="cls-2" cx="45.4" cy="101.31" r="42.9"/><circle class="cls-2" cx="143" cy="103.31" r="42.9"/><rect class="cls-4" x="228.18" y="164.1" width="21.46" height="33.33" transform="translate(-233.83 65.98) rotate(-45)"/><rect class="cls-4" x="290.11" y="161.1" width="21.46" height="33.33" transform="translate(37.83 -316.56) rotate(45)"/></svg>